<?xml version="1.0" encoding="utf-8"?>
<!-- Generator: Adobe Illustrator 26.3.1, SVG Export Plug-In . SVG Version: 6.00 Build 0)  -->
<svg version="1.1" id="Layer_1" xmlns="http://www.w3.org/2000/svg" xmlns:xlink="http://www.w3.org/1999/xlink" x="0px" y="0px"
	 viewBox="0 0 30 30" style="enable-background:new 0 0 30 30;" xml:space="preserve">
<style type="text/css">
	.st0{fill:#FFFFFF;}
</style>
<g>
	<g>
		<path class="st0" d="M0,28.9c0.4-0.8,1.1-0.6,1.8-0.6c0-0.1,0-0.2,0-0.3c0-3.1,0-6.2,0-9.2c0-0.8,0.3-1.1,1.1-1.1c1,0,2.1,0,3.1,0
			c0.7,0,1,0.3,1,1c0,3.1,0,6.2,0,9.3c0,0.1,0,0.2,0,0.3c0.6,0,1.2,0,1.8,0c0-0.1,0-0.2,0-0.3c0-1.9,0-3.8,0-5.8
			c0-0.7,0.3-1.1,1.1-1.1c1.1,0,2.1,0,3.2,0c0.7,0,1,0.3,1,1c0,1.9,0,3.9,0,5.8c0,0.1,0,0.2,0,0.3c0.6,0,1.2,0,1.8,0
			c0-0.1,0-0.2,0-0.3c0-4.2,0-8.5,0-12.7c0-0.8,0.3-1.1,1.1-1.1c1,0,2.1,0,3.1,0c0.7,0,1.1,0.3,1.1,1.1c0,4.3,0,8.5,0,12.8
			c0,0.1,0,0.2,0,0.3c0.6,0,1.2,0,1.8,0c0-0.1,0-0.2,0-0.3c0-6,0-12,0-18c0-0.8,0.3-1.1,1.1-1.1c1,0,2.1,0,3.1,0
			c0.7,0,1.1,0.3,1.1,1.1c0,6,0,12,0,18c0,0.1,0,0.2,0,0.4c0.2,0,0.5,0,0.7,0c0.5,0,0.9,0.2,1.1,0.7c0,0.1,0,0.3,0,0.4
			c-0.2,0.3-0.4,0.5-0.7,0.6c-9.6,0-19.1,0-28.7,0c-0.2-0.2-0.4-0.4-0.6-0.6C0,29.2,0,29,0,28.9z"/>
		<path class="st0" d="M26,0c0.5,0.2,0.9,0.3,1.3,0.7c0.8,0.7,1.1,1.6,0.8,2.6c-0.3,1.1-1,1.7-2.1,1.9c-0.6,0.1-1.2,0-1.7-0.3
			c-0.1,0-0.2,0-0.3,0C23,5.6,22.1,6.3,21.2,7c-0.1,0.1-0.1,0.2-0.1,0.3c0.2,1,0,1.8-0.8,2.5c-0.8,0.7-1.7,0.9-2.7,0.5
			c-0.2-0.1-0.3,0-0.4,0.1c-1.1,1.1-2.1,2.1-3.2,3.2c-0.1,0.1-0.2,0.2-0.1,0.4c0.6,1.5-0.2,3-1.8,3.4c-1.4,0.4-2.9-0.5-3.2-2
			c0-0.2-0.1-0.4-0.1-0.6c0-0.2,0-0.3-0.2-0.4c-0.7-0.3-1.4-0.7-2.1-1.1c-0.2-0.1-0.3-0.1-0.4,0c-0.8,0.7-1.7,0.8-2.7,0.4
			c-1-0.4-1.5-1.2-1.6-2.3c-0.1-1.2,0.8-2.3,2-2.6c1.1-0.3,2.4,0.3,2.9,1.2c0.3,0.5,0.4,0.9,0.4,1.5c0,0.1,0.1,0.2,0.2,0.3
			c0.7,0.4,1.5,0.8,2.2,1.1c0.1,0,0.2,0,0.3,0c0.8-0.6,1.7-0.8,2.7-0.4c0.1,0,0.2,0,0.2-0.1c1.1-1.1,2.2-2.2,3.3-3.3
			c0.1-0.1,0.1-0.2,0-0.3c-0.5-1.4,0.1-2.8,1.4-3.4c0.8-0.3,1.5-0.3,2.3,0.1c0.2,0.1,0.3,0.1,0.5,0c0.9-0.7,1.8-1.3,2.6-2
			C23,3.5,23,3.4,23,3.2c-0.3-1.3,0.5-2.7,1.7-3.1C24.8,0.1,24.9,0,25,0C25.3,0,25.6,0,26,0z"/>
	</g>
</g>
</svg>
