<?xml version="1.0" encoding="UTF-8"?><svg id="Layer_1" xmlns="http://www.w3.org/2000/svg" viewBox="0 0 23.37 23.23"><defs><style>.cls-1{fill:#fff;}</style></defs><path class="cls-1" d="M5.02,18.23l5.54-.02L22.63,6.25c.47-.47,.74-1.1,.74-1.77s-.26-1.3-.74-1.77l-1.99-1.99c-.95-.95-2.6-.94-3.54,0L5.02,12.67v5.56ZM18.87,2.48l1.99,1.99-2,1.98-1.99-1.99,2-1.98ZM7.53,13.72l7.56-7.49,1.99,1.99-7.56,7.49h-1.99v-1.99Z"/><path class="cls-1" d="M2.51,23.23H20.07c1.38,0,2.51-1.13,2.51-2.51V9.85l-2.51,2.51v8.36H6.47s-.07,.01-.1,.01c-.04,0-.08-.01-.13-.01H2.51V3.16H11.1L13.61,.65H2.51C1.13,.65,0,1.78,0,3.16V20.72c0,1.38,1.13,2.51,2.51,2.51Z"/></svg>