<?xml version="1.0" encoding="UTF-8"?><svg id="Layer_1" xmlns="http://www.w3.org/2000/svg" viewBox="0 0 77.12 41.19"><defs><style>.cls-1{fill:#fff;}</style></defs><g><polygon class="cls-1" points="38.51 10.22 25.54 19.55 51.48 19.55 38.51 10.22"/><path class="cls-1" d="M38.51,0L0,27.7H77.12L38.51,0Zm0,5.8l22.4,16.11H16.11L38.51,5.8Z"/></g><g><path class="cls-1" d="M1.5,40.82H.39v-8.89H1.5v8.89Z"/><path class="cls-1" d="M5.77,31.5l6.68,7v-6.57h1.11v9.26l-6.68-6.99v6.63h-1.11v-9.32Z"/><path class="cls-1" d="M18.94,32.94v2.5h3.09v1.01h-3.09v4.36h-1.11v-8.89h4.31v1.01h-3.2Z"/><path class="cls-1" d="M27.21,40.82h-1.11v-8.89h1.11v8.89Z"/><path class="cls-1" d="M31.48,31.5l6.68,7v-6.57h1.11v9.26l-6.68-6.99v6.63h-1.11v-9.32Z"/><path class="cls-1" d="M44.63,40.82h-1.11v-8.89h1.11v8.89Z"/><path class="cls-1" d="M51.39,40.82h-1.11v-7.88h-2.11v-1.01h5.33v1.01h-2.11v7.88Z"/><path class="cls-1" d="M58.04,31.93v5.25c0,1.45,.44,2.79,2.15,2.79s2.15-1.34,2.15-2.79v-5.25h1.11v5.63c0,1.96-1.21,3.46-3.26,3.46s-3.26-1.5-3.26-3.46v-5.63h1.11Z"/><path class="cls-1" d="M69.19,34.95h-.02l-1.04,5.87h-1.14l1.82-9.27,3.06,7.01,3.05-7.01,1.82,9.27h-1.14l-1.04-5.87h-.02l-2.67,6.06-2.67-6.06Z"/></g></svg>