<?xml version="1.0" encoding="utf-8"?>
<!-- Generator: Adobe Illustrator 26.3.1, SVG Export Plug-In . SVG Version: 6.00 Build 0)  -->
<svg version="1.1" id="Layer_1" xmlns="http://www.w3.org/2000/svg" xmlns:xlink="http://www.w3.org/1999/xlink" x="0px" y="0px"
	 viewBox="0 0 1586.7 641.6" style="enable-background:new 0 0 1586.7 641.6;" xml:space="preserve">
<style type="text/css">
	.st0{fill:url(#SVGID_1_);}
	.st1{fill:#28282B;}
</style>
<g>
	<linearGradient id="SVGID_1_" gradientUnits="userSpaceOnUse" x1="56.3992" y1="336.2905" x2="1441.8308" y2="336.2905">
		<stop  offset="0" style="stop-color:#E5E2DF"/>
		<stop  offset="0" style="stop-color:#DED9D6"/>
		<stop  offset="6.299578e-02" style="stop-color:#CFCAC9"/>
		<stop  offset="0.1833" style="stop-color:#A8A4A7"/>
		<stop  offset="0.264" style="stop-color:#8B878D"/>
		<stop  offset="0.5225" style="stop-color:#F3F4F4"/>
		<stop  offset="0.5842" style="stop-color:#E5E5E6"/>
		<stop  offset="0.7027" style="stop-color:#C0BEC0"/>
		<stop  offset="0.8647" style="stop-color:#858085"/>
		<stop  offset="0.8764" style="stop-color:#807B80"/>
		<stop  offset="1" style="stop-color:#D1D3D4"/>
		<stop  offset="1" style="stop-color:#A7A9AC"/>
	</linearGradient>
	<rect x="56.4" y="178.3" class="st0" width="1385.4" height="316"/>
	<g>
		
			<image style="overflow:visible;opacity:0.84;" width="1367" height="305" xlink:href="301537E.png"  transform="matrix(1 0 0 1 67.3782 185.7053)">
		</image>
		<g>
			<path class="st1" d="M1185.3,190.6h-8.3H321.2h-38.3H72V482h210.8h38.3H1177h8.3h240.9V190.6H1185.3z M369.7,411.3h-21.2V268.1
				h21.2V411.3z M486.5,411.3h-20.6v-53.9c-0.1-4.5-1.4-8.1-3.7-10.8c-2.3-2.7-6.1-4-11.3-4c-4.7,0-8.9,1.3-12.6,3.9
				c-3.7,2.6-6.6,6.3-8.7,11c-2.1,4.7-3.1,10.1-3.1,16.3v37.5h-20.6v-82.6h18.4l1.5,15.4c2.7-5.7,6.9-10.2,12.6-13.7
				c5.9-3.6,12.8-5.3,20.7-5.3c7.9,0,14.4,2.3,19.5,6.9c5.1,4.6,7.8,10.6,7.9,18V411.3z M569.5,278c-1.2-1.3-2.6-2.2-4.1-2.7
				c-1.5-0.5-3-0.7-4.5-0.7c-4.8,0-8.5,1.5-11.2,4.6c-2.7,3.1-4,8.4-4,15.9v33.4h23.4v18h-23.4v64.8h-20.6v-64.8h-14.2v-18h14.2
				v-33.8c0-11.7,2.9-20.8,8.6-27.3c5.7-6.5,14.1-9.7,25-9.7c2.9,0,6.2,0.4,9.8,1.2c3.6,0.8,6.8,2.2,9.6,4.1L569.5,278z
				 M604.8,411.3h-20.4v-82.6h20.4V411.3z M603.2,306.9c-2.4,2.1-5.1,3.2-8,3.2c-2.9,0-5.7-1.1-8.3-3.2c-2.6-2.1-3.9-4.7-3.9-7.9
				c0-3.2,1.3-5.8,3.9-7.9c2.6-2.1,5.4-3.2,8.3-3.2c2.9,0,5.6,1.1,8,3.2c2.4,2.1,3.6,4.7,3.6,7.9
				C606.8,302.1,605.6,304.8,603.2,306.9z M717,411.3h-20.6v-53.9c-0.1-4.5-1.4-8.1-3.7-10.8c-2.3-2.7-6.1-4-11.3-4
				c-4.7,0-8.9,1.3-12.6,3.9c-3.7,2.6-6.6,6.3-8.7,11c-2.1,4.7-3.1,10.1-3.1,16.3v37.5h-20.6v-82.6h18.4l1.5,15.4
				c2.7-5.7,6.9-10.2,12.6-13.7c5.9-3.6,12.8-5.3,20.7-5.3c7.9,0,14.4,2.3,19.5,6.9c5.1,4.6,7.8,10.6,7.9,18V411.3z M769.2,411.3
				h-20.6v-82.6h20.6V411.3z M767.6,306.9c-2.4,2.1-5.1,3.2-8,3.2c-2.9,0-5.7-1.1-8.3-3.2c-2.6-2.1-3.9-4.7-3.9-7.9
				c0-3.2,1.3-5.8,3.9-7.9c2.6-2.1,5.4-3.2,8.3-3.2c2.9,0,5.6,1.1,8,3.2c2.4,2.1,3.6,4.7,3.6,7.9C771.2,302.1,770,304.8,767.6,306.9
				z M851.6,344.8h-22.4v66.6h-20.6v-66.6h-14.8V329h14.8v-36.7h20.6V329h22.4V344.8z M953,411.3h-18.6l-1.3-15.4
				c-1.6,3.6-3.9,6.7-7,9.4c-3.3,2.9-7.1,5.2-11.4,6.8c-4.3,1.6-9.1,2.5-14.3,2.5c-7.5,0-13.7-2.3-18.7-6.9
				c-5-4.6-7.6-10.5-7.9-17.8v-61.2h20.6v53.9c0.1,4.2,1.3,7.7,3.6,10.4c2.3,2.7,5.9,4.1,10.8,4.2c4.4,0,8.4-1.3,12-4
				c3.6-2.7,6.4-6.4,8.5-11.2c2.1-4.7,3.1-10,3.1-15.8v-37.5H953V411.3z M1119.7,411.3h-20.4v-53.7c-0.1-4.1-1.1-7.5-2.9-10.4
				c-1.8-2.8-5-4.3-9.5-4.4c-4.8,0-9,1.5-12.7,4.3c-3.7,2.9-6.5,6.7-8.5,11.3c-2,4.6-3.1,9.5-3.2,14.8v38.1h-20.6v-53.7
				c-0.1-4.1-1.1-7.5-3-10.4c-1.9-2.8-5.1-4.3-9.8-4.4c-4.8,0-9,1.5-12.5,4.3c-3.5,2.9-6.3,6.7-8.3,11.4c-2,4.7-3,9.6-3,14.9v37.9
				h-20.6v-82.6h18.4l1.5,15c3.2-5.6,7.4-10.1,12.7-13.4c5.6-3.5,12-5.2,19.2-5.2c4.7,0,8.8,0.7,12.4,2.1c3.6,1.4,6.6,3.5,9.1,6.2
				c2.3,2.6,3.8,5.7,4.5,9.3c3.2-5.4,7.4-9.6,12.6-12.6c5.6-3.3,11.5-4.9,17.6-4.9c8.1,0,14.6,2.3,19.5,6.8
				c4.9,4.5,7.4,10.5,7.5,17.9V411.3z"/>
		</g>
	</g>
</g>
</svg>
