<?xml version="1.0" encoding="utf-8"?>
<!-- Generator: Adobe Illustrator 26.3.1, SVG Export Plug-In . SVG Version: 6.00 Build 0)  -->
<svg version="1.1" id="Layer_1" xmlns="http://www.w3.org/2000/svg" xmlns:xlink="http://www.w3.org/1999/xlink" x="0px" y="0px"
	 viewBox="0 0 30 30" style="enable-background:new 0 0 30 30;" xml:space="preserve">
<g>
	<path d="M11.2,26.5h7.6c-0.5,1.9-1.8,3.1-3.7,3.2C13.3,29.7,11.8,28.6,11.2,26.5z"/>
	<path d="M15,2.3c0.8,0,1.6,0.1,2.4,0.3c-0.5-1.5-1-2.3-2.5-2.2c-1.5,0-2,0.9-2.3,2.3C13.3,2.4,14.2,2.3,15,2.3z"/>
	<path d="M25.4,22.8L25.4,22.8c-0.8-0.8-1.3-1.9-1.4-3l-0.6-7.5c0-5.2-3.1-9.5-8.4-9.5c-5.2,0-8.4,4.2-8.4,9.5L6,19.7
		c-0.1,1.2-0.6,2.2-1.4,3l0,0c-1.1,1.1-0.5,2.9,0.9,3.3l0,0.1H6h1.1h15.8H24h0.5l0-0.1C25.9,25.7,26.5,23.9,25.4,22.8z"/>
</g>
</svg>
