<?xml version="1.0" encoding="utf-8"?>
<!-- Generator: Adobe Illustrator 26.3.1, SVG Export Plug-In . SVG Version: 6.00 Build 0)  -->
<svg version="1.1" id="Layer_1" xmlns="http://www.w3.org/2000/svg" xmlns:xlink="http://www.w3.org/1999/xlink" x="0px" y="0px"
	 viewBox="0 0 30 30" style="enable-background:new 0 0 30 30;" xml:space="preserve">
<style type="text/css">
	.st0{fill:#FFFFFF;}
</style>
<path class="st0" d="M17.5,3C13.5-1,7-1,3,3s-4,10.5,0,14.5c3.4,3.4,8.7,4,12.7,1.4l10.5,10.5c0.9,0.9,2.3,0.9,3.1,0l0,0
	c0.9-0.9,0.9-2.3,0-3.1L18.9,15.7C21.5,11.7,20.9,6.4,17.5,3z M15.9,15.9c-3.1,3.1-8.2,3.1-11.3,0s-3.1-8.2,0-11.3
	c3.1-3.1,8.2-3.1,11.3,0C19,7.7,19,12.8,15.9,15.9z"/>
</svg>
