<?xml version="1.0" encoding="UTF-8"?><svg id="Layer_1" xmlns="http://www.w3.org/2000/svg" viewBox="0 0 30 30"><defs><style>.cls-1{fill:#192231;}.cls-2{fill:#b8bac6;}</style></defs><polyline class="cls-2" points="30 0 0 0 0 30 30 30 30 0"/><path class="cls-1" d="M25.17,18.31l-.2,.41c-.47,.88-1.42,1.22-2.3,.74h-.07c-.14,.34-.2,.61-.41,.88-.47,.74-1.35,1.15-2.23,.95-.88-.2-1.55-.95-1.62-1.83v-3.24h-6.76v3.24c-.07,.95-.74,1.69-1.62,1.89s-1.76-.2-2.23-.95c-.14-.27-.27-.61-.41-.95h-.07c-1.08,.61-2.43-.14-2.43-1.55v-5.54c0-.41,0-.81,.2-1.15,.47-.74,1.42-1.01,2.23-.68h.07c.14-.34,.2-.68,.41-.95,.61-1.01,2.1-1.28,3.04-.47,.54,.47,.81,1.01,.81,1.76v2.84h6.76v-.27c0-1.01,0-2.03,.07-2.97,.07-.81,.54-1.35,1.28-1.69s1.42-.2,2.03,.27c.47,.34,.74,.88,.88,1.49h.07c.88-.47,2.1,0,2.43,1.08,0,.07,.07,.07,.07,.14v6.56Zm-14.4-3.24v-4.33c0-.74-.81-1.35-1.55-1.08-.61,.2-.95,.68-.95,1.28v8.25c0,1.01,.88,1.55,1.69,1.28,.54-.2,.88-.68,.88-1.28-.07-1.42-.07-2.77-.07-4.12Zm8.45,0v4.33c0,.74,.81,1.28,1.55,1.15,.61-.14,.95-.68,.95-1.28V11.01c0-1.01-.88-1.55-1.69-1.28-.41,.14-.88,.61-.88,1.28,.07,1.28,.07,2.64,.07,4.06Zm-11.83,0v-2.91c0-.2-.07-.41-.14-.61-.2-.27-.61-.41-.95-.27-.34,.14-.61,.41-.61,.81v5.81c0,.34,.07,.61,.41,.81,.27,.14,.54,.2,.88,0,.27-.14,.47-.41,.47-.74-.07-.95-.07-1.96-.07-2.91Zm15.21,0v2.97c0,.61,.61,1.01,1.15,.81,.34-.14,.54-.47,.54-.88v-5.75c0-.47-.2-.74-.54-.88-.54-.2-1.15,.2-1.15,.81v2.91Zm-10.95,.41h6.76v-.81h-6.76v.81Z"/></svg>